<svg width="17" height="10" viewBox="0 0 17 10" fill="none" xmlns="http://www.w3.org/2000/svg">
<path d="M3.47067 0.241667C3.3946 0.165799 3.3049 0.106329 3.20672 0.0666666C3.01199 -0.0166817 2.79357 -0.0166817 2.59884 0.0666666C2.50066 0.106329 2.41097 0.165799 2.3349 0.241667L0.735225 1.90833C0.584613 2.06525 0.5 2.27808 0.5 2.5C0.5 2.72192 0.584613 2.93475 0.735225 3.09167C0.885837 3.24859 1.09011 3.33674 1.30311 3.33674C1.51611 3.33674 1.72038 3.24859 1.87099 3.09167L2.10295 2.84167V9.16667C2.10295 9.38768 2.18721 9.59964 2.33721 9.75592C2.48721 9.9122 2.69065 10 2.90278 10C3.11491 10 3.31835 9.9122 3.46835 9.75592C3.61835 9.59964 3.70262 9.38768 3.70262 9.16667V2.84167L3.93457 3.09167C4.00893 3.16977 4.09739 3.23177 4.19486 3.27408C4.29232 3.31638 4.39687 3.33817 4.50245 3.33817C4.60804 3.33817 4.71259 3.31638 4.81005 3.27408C4.90752 3.23177 4.99598 3.16977 5.07034 3.09167C5.14531 3.0142 5.20481 2.92203 5.24542 2.82048C5.28602 2.71893 5.30693 2.61001 5.30693 2.5C5.30693 2.38999 5.28602 2.28107 5.24542 2.17952C5.20481 2.07797 5.14531 1.9858 5.07034 1.90833L3.47067 0.241667ZM7.7018 1.66667H15.7002C15.9123 1.66667 16.1157 1.57887 16.2657 1.42259C16.4157 1.26631 16.5 1.05435 16.5 0.833333C16.5 0.61232 16.4157 0.400358 16.2657 0.244078C16.1157 0.0877975 15.9123 0 15.7002 0H7.7018C7.48967 0 7.28623 0.0877975 7.13623 0.244078C6.98623 0.400358 6.90196 0.61232 6.90196 0.833333C6.90196 1.05435 6.98623 1.26631 7.13623 1.42259C7.28623 1.57887 7.48967 1.66667 7.7018 1.66667ZM15.7002 8.33333H7.7018C7.48967 8.33333 7.28623 8.42113 7.13623 8.57741C6.98623 8.73369 6.90196 8.94565 6.90196 9.16667C6.90196 9.38768 6.98623 9.59964 7.13623 9.75592C7.28623 9.9122 7.48967 10 7.7018 10H15.7002C15.9123 10 16.1157 9.9122 16.2657 9.75592C16.4157 9.59964 16.5 9.38768 16.5 9.16667C16.5 8.94565 16.4157 8.73369 16.2657 8.57741C16.1157 8.42113 15.9123 8.33333 15.7002 8.33333ZM15.7002 4.16667H7.7018C7.48967 4.16667 7.28623 4.25446 7.13623 4.41074C6.98623 4.56702 6.90196 4.77899 6.90196 5C6.90196 5.22101 6.98623 5.43297 7.13623 5.58926C7.28623 5.74554 7.48967 5.83333 7.7018 5.83333H15.7002C15.9123 5.83333 16.1157 5.74554 16.2657 5.58926C16.4157 5.43297 16.5 5.22101 16.5 5C16.5 4.77899 16.4157 4.56702 16.2657 4.41074C16.1157 4.25446 15.9123 4.16667 15.7002 4.16667Z" fill="#2D3D5C"/>
</svg>
