<svg width="16" height="16" viewBox="0 0 16 16" fill="none" xmlns="http://www.w3.org/2000/svg">
<path fill-rule="evenodd" clip-rule="evenodd" d="M4.80001 3.2H3.20001V2.40002H1.60001V4.79999H14.4V2.40002H12.8V3.2H11.2V2.40002H4.80001V3.2ZM14.4 6.39999H1.60001V14.4H14.4V6.39999ZM11.2 0.799988H4.80001V0H3.20001V0.799988H1.6C0.716344 0.799988 0 1.51633 0 2.39999V14.4C0 15.2836 0.716344 16 1.6 16H14.4C15.2837 16 16 15.2836 16 14.4V2.39999C16 1.51633 15.2837 0.799988 14.4 0.799988H12.8V0H11.2V0.799988ZM5.6 9.6H4V8H5.6V9.6ZM7.20001 9.6H8.80001V8H7.20001V9.6ZM12 9.6H10.4V8H12V9.6ZM4 12.8H5.6V11.2H4V12.8ZM8.80001 12.8H7.20001V11.2H8.80001V12.8Z" fill="#71B92F"/>
</svg>
