<svg width="161" height="50" viewBox="0 0 161 50" fill="none" xmlns="http://www.w3.org/2000/svg">
<path d="M54.0999 35.6768H59.9379L61.6244 29.4268H64.7381L66.6841 35.6768H72.9113L70.3167 28.3852L70.8356 28.1248C71.0951 28.1248 71.4843 27.8643 71.8735 27.6039C72.3924 27.2133 72.7816 26.9529 73.3005 26.432C73.6897 26.0414 74.2087 25.5206 74.5979 24.7393C75.1168 24.0883 75.3763 23.307 75.6358 22.5258C76.1547 20.5727 75.7655 19.0102 74.7276 17.7081C73.56 16.2758 71.8735 15.6248 69.668 15.6248H59.5487L54.0999 35.6768ZM69.7977 22.5258C69.668 23.0466 69.2788 23.5675 68.7598 23.9581C68.2409 24.3487 67.5922 24.4789 66.9436 24.4789H62.9218L64.0894 20.5727H67.9814C68.6301 20.5727 69.149 20.7029 69.5382 21.0935C69.7977 21.4841 69.9275 22.005 69.7977 22.5258ZM83.6793 35.6768H88.9984L92.631 21.6143H87.4416L85.6253 28.7758C85.3658 29.557 84.9766 30.2081 84.328 30.7289C83.809 31.1196 83.1604 31.38 82.382 31.38C81.863 31.38 81.3441 31.2498 81.0846 30.7289C80.6954 30.3383 80.6954 29.8175 80.8251 29.2966L82.9009 21.6143H77.7115L75.3763 30.0779C74.9871 31.9008 75.1168 33.3331 75.8952 34.3748C76.6736 35.4164 77.8413 35.9373 79.5278 35.9373C80.3062 35.9373 81.0846 35.8071 81.9928 35.4164C82.7712 35.156 83.2901 34.7654 83.5496 34.6352C83.809 34.3748 84.0685 34.2446 84.1982 34.1143L83.6793 35.6768ZM100.156 21.6143H94.9662L91.2039 35.6768H96.3933L98.3393 28.6456C98.469 27.8643 98.988 27.2133 99.5069 26.6925C100.156 26.1716 100.804 25.9112 101.453 25.9112C102.102 25.9112 102.621 26.1716 102.88 26.5623C103.139 26.9529 103.139 27.6039 103.01 28.255L101.064 35.6768H106.253L108.459 27.3435C108.978 25.6508 108.848 24.2185 108.069 23.0466C107.291 22.005 106.123 21.3539 104.567 21.3539C103.658 21.3539 102.88 21.6143 102.102 22.005C101.193 22.2654 100.675 22.656 100.415 22.7862C100.026 23.0466 99.8961 23.1768 99.7664 23.4373L100.156 21.6143Z" fill="#71B92F"/>
<path d="M114.425 15.6245L109.106 35.6766H114.944L116.501 29.687H120.393C122.728 29.687 124.804 29.036 126.62 27.7339C128.566 26.3016 129.734 24.7391 130.253 22.6558C130.772 20.7026 130.512 19.0099 129.345 17.7078C128.177 16.2756 126.491 15.6245 124.155 15.6245H114.425ZM122.469 20.5724C123.247 20.5724 123.766 20.7026 124.026 21.2235C124.415 21.6141 124.545 22.1349 124.415 22.6558C124.285 23.3068 123.896 23.6974 123.247 24.2183C122.728 24.6089 122.08 24.8693 121.431 24.8693H117.798L118.966 20.5724H122.469ZM140.372 35.6766L142.707 26.9526C143.097 25.3901 142.837 24.0881 141.799 23.0464C140.761 22.0047 139.334 21.3537 137.259 21.3537C136.48 21.3537 135.702 21.4839 134.923 21.7443C134.145 21.8745 133.496 22.1349 132.977 22.3953C132.458 22.5256 131.939 22.9162 131.55 23.1766C131.031 23.437 130.772 23.6974 130.642 23.8276C130.512 23.9578 130.383 24.0881 130.253 24.0881L132.199 26.6922L132.718 26.3016C132.977 26.0412 133.367 25.911 134.015 25.6506C134.664 25.3901 135.183 25.2599 135.831 25.2599C136.48 25.2599 136.999 25.3901 137.259 25.6506C137.648 25.911 137.648 26.3016 137.518 26.6922L133.107 27.4735C131.55 27.8641 130.253 28.3849 129.215 29.1662C128.177 29.8172 127.528 30.8589 127.269 31.9006C127.01 33.0724 127.139 33.9839 127.918 34.7651C128.566 35.5464 129.734 35.937 131.161 35.937C131.939 35.937 132.718 35.8068 133.496 35.4162C134.275 35.1558 134.794 34.7651 135.053 34.6349C135.313 34.3745 135.442 34.2443 135.572 34.1141L135.183 35.6766H140.372ZM133.756 32.2912C132.848 32.2912 132.588 31.9006 132.718 31.1193C132.848 30.8589 132.977 30.5985 133.367 30.3381C133.626 30.0776 134.015 29.9474 134.404 29.8172L136.869 29.4266L136.74 29.8172C136.61 30.4683 136.221 31.1193 135.572 31.5099C135.053 32.0308 134.404 32.2912 133.756 32.2912ZM145.821 35.937C145.172 36.8485 144.264 37.2391 143.226 37.2391C142.578 37.2391 142.059 37.1089 141.67 36.9787L140.632 41.2756H140.891C141.151 41.4058 141.41 41.536 141.929 41.536C142.448 41.6662 142.837 41.6662 143.356 41.6662C144.783 41.6662 146.21 41.1453 147.508 40.2339C148.805 39.3224 150.232 37.7599 151.529 35.6766L161 21.6141H155.421L150.491 29.8172L149.973 21.6141H144.394L146.21 35.4162L145.821 35.937Z" fill="#1F478D"/>
<path fill-rule="evenodd" clip-rule="evenodd" d="M24.909 0C38.6609 0 49.818 11.1979 49.818 25C49.818 38.8021 38.6609 50 24.909 50C11.1572 50 0 38.8021 0 25C0 11.1979 11.1572 0 24.909 0Z" fill="#1F478D"/>
<path fill-rule="evenodd" clip-rule="evenodd" d="M8.56217 31.3805L6.35669 39.193H16.3462L18.9409 29.4274L19.4599 27.6045C18.0328 27.7347 9.21085 28.7764 8.56217 31.3805Z" fill="#FEFEFE"/>
<path fill-rule="evenodd" clip-rule="evenodd" d="M27.1146 22.5258L22.8334 16.0154H13.2331C12.8439 16.0154 11.9357 16.406 12.3249 16.9268L16.3467 23.0466C16.9954 22.3956 19.8495 22.5258 22.055 22.5258H23.0929C24.3902 22.5258 25.8173 22.5258 27.1146 22.5258Z" fill="url(#paint0_linear)"/>
<path fill-rule="evenodd" clip-rule="evenodd" d="M29.4491 39.5831H40.2171C39.4387 39.3227 38.5306 38.6716 38.0116 37.8904L32.0438 29.2966C30.2276 29.8175 28.4113 30.0779 26.595 30.0779H21.2759L26.9842 38.1508C27.5031 38.932 28.4113 39.5831 29.4491 39.5831Z" fill="url(#paint1_linear)"/>
<path d="M16.4757 9.76587L12.4539 15.7555C12.0647 16.2763 12.0647 16.4065 12.1945 16.7971C12.4539 15.8857 13.6216 16.0159 14.1405 16.0159H23.7408H25.4274H29.7086C30.8762 16.0159 31.6546 16.2763 32.3033 16.9273C32.952 17.7086 33.2114 18.3596 32.952 19.2711C32.6925 20.1825 32.1736 20.9638 31.1357 21.6148C30.0978 22.2659 29.0599 22.5263 27.8923 22.5263H20.1083H19.7191C18.4217 22.5263 16.8649 22.2659 15.827 23.3075L10.3782 28.9065C9.72953 29.5575 9.08085 30.2086 8.69165 30.9898C9.21059 30.5992 9.85926 30.0784 10.5079 30.0784H18.8109H19.5893H20.7569H22.5732H26.4653C30.487 30.0784 33.9899 29.0367 37.1035 26.9534C40.0874 24.87 42.0334 22.3961 42.9415 19.2711C43.7199 16.1461 43.0713 13.6721 41.1252 11.5888C39.1792 9.50545 36.1953 8.59399 32.1736 8.59399H20.1083C18.8109 8.59399 17.1244 8.85441 16.4757 9.76587Z" fill="#FEFEFE"/>
<path fill-rule="evenodd" clip-rule="evenodd" d="M8.04272 33.3336C9.0806 30.9898 16.9944 30.469 18.6809 30.3388L18.8107 30.0784H10.5077C9.4698 30.0784 8.82113 30.5992 8.43193 31.6409L8.04272 33.3336Z" fill="#D9DADA"/>
<defs>
<linearGradient id="paint0_linear" x1="19.6835" y1="22.9912" x2="19.6835" y2="16.0022" gradientUnits="userSpaceOnUse">
<stop stop-color="#A1C527"/>
<stop offset="0.439216" stop-color="#9EC428"/>
<stop offset="0.729412" stop-color="#95C12B"/>
<stop offset="0.831373" stop-color="#46A33A"/>
<stop offset="1" stop-color="#18993C"/>
</linearGradient>
<linearGradient id="paint1_linear" x1="30.7607" y1="39.5019" x2="30.7607" y2="29.2774" gradientUnits="userSpaceOnUse">
<stop stop-color="#A1C527"/>
<stop offset="0.439216" stop-color="#9EC428"/>
<stop offset="0.729412" stop-color="#95C12B"/>
<stop offset="0.831373" stop-color="#46A33A"/>
<stop offset="1" stop-color="#18993C"/>
</linearGradient>
</defs>
</svg>
