<?xml version="1.0" encoding="utf-8"?>
<!-- Generator: Adobe Illustrator 21.1.0, SVG Export Plug-In . SVG Version: 6.00 Build 0)  -->
<svg version="1.1" id="Слой_1" xmlns="http://www.w3.org/2000/svg" xmlns:xlink="http://www.w3.org/1999/xlink" x="0px" y="0px"
	 viewBox="0 0 162.7 162.7" style="enable-background:new 0 0 162.7 162.7;" xml:space="preserve">
<style type="text/css">
	.st0{fill:#EDF0F1;}
	.st1{fill:#B9BDBF;}
</style>
<circle class="st0" cx="81" cy="81" r="81"/>
<g>
	<path class="st1" d="M80.9,72.9c-5.3,0-9.6,4.3-9.6,9.6c0,5.3,4.3,9.6,9.6,9.6c5.3,0,9.6-4.3,9.6-9.6
		C90.4,77.2,86.1,72.9,80.9,72.9z"/>
	<path class="st1" d="M100.9,69h-6.8L91,61H70.8l-3.2,8h-1.1v-4h-4.8v4h-1c-2.1,0-3.8,1.7-3.8,3.8v23.4c0,2.1,1.7,3.8,3.8,3.8h40.1
		c2.1,0,3.8-1.7,3.8-3.8V72.8C104.8,70.7,103,69,100.9,69z M65,69h-1.6v-2.4H65V69z M80.9,96.8c-7.9,0-14.3-6.4-14.3-14.3
		S73,68.2,80.9,68.2s14.3,6.4,14.3,14.3S88.8,96.8,80.9,96.8z M98.4,78.5c-1.8,0-3.2-1.4-3.2-3.2s1.4-3.2,3.2-3.2s3.2,1.4,3.2,3.2
		S100.1,78.5,98.4,78.5z"/>
</g>
</svg>
