<svg width="13" height="12" viewBox="0 0 13 12" fill="none" xmlns="http://www.w3.org/2000/svg">
<path d="M0.368 0.595999H2.564V1.304H1.22V11.12H2.564V11.828H0.368V0.595999ZM4.09231 9.56C3.91631 9.56 3.76431 9.496 3.63631 9.368C3.51631 9.24 3.45631 9.084 3.45631 8.9C3.45631 8.716 3.51631 8.564 3.63631 8.444C3.76431 8.316 3.91631 8.252 4.09231 8.252C4.26831 8.252 4.42031 8.316 4.54831 8.444C4.67631 8.564 4.74031 8.716 4.74031 8.9C4.74031 9.084 4.67631 9.24 4.54831 9.368C4.42031 9.496 4.26831 9.56 4.09231 9.56ZM6.63528 9.56C6.45928 9.56 6.30728 9.496 6.17928 9.368C6.05928 9.24 5.99928 9.084 5.99928 8.9C5.99928 8.716 6.05928 8.564 6.17928 8.444C6.30728 8.316 6.45928 8.252 6.63528 8.252C6.81128 8.252 6.96328 8.316 7.09128 8.444C7.21928 8.564 7.28328 8.716 7.28328 8.9C7.28328 9.084 7.21928 9.24 7.09128 9.368C6.96328 9.496 6.81128 9.56 6.63528 9.56ZM9.17825 9.56C9.00225 9.56 8.85025 9.496 8.72225 9.368C8.60225 9.24 8.54225 9.084 8.54225 8.9C8.54225 8.716 8.60225 8.564 8.72225 8.444C8.85025 8.316 9.00225 8.252 9.17825 8.252C9.35425 8.252 9.50625 8.316 9.63425 8.444C9.76225 8.564 9.82625 8.716 9.82625 8.9C9.82625 9.084 9.76225 9.24 9.63425 9.368C9.50625 9.496 9.35425 9.56 9.17825 9.56ZM10.7012 11.828V11.12H12.0452V1.304H10.7012V0.595999H12.8972V11.828H10.7012Z" fill="#4F5E74"/>
</svg>
