<svg width="17" height="10" viewBox="0 0 17 10" fill="none" xmlns="http://www.w3.org/2000/svg">
<path d="M3.93457 6.9082L3.70262 7.15819V0.833317C3.70262 0.612308 3.61835 0.40035 3.46835 0.244073C3.31835 0.0877958 3.11491 0 2.90278 0C2.69065 0 2.48721 0.0877958 2.33721 0.244073C2.18721 0.40035 2.10295 0.612308 2.10295 0.833317V7.15819L1.87099 6.9082C1.72038 6.75128 1.51611 6.66313 1.30311 6.66313C1.09011 6.66313 0.885837 6.75128 0.735225 6.9082C0.584613 7.06512 0.5 7.27794 0.5 7.49985C0.5 7.72177 0.584613 7.93459 0.735225 8.09151L2.3349 9.75814C2.41097 9.83401 2.50066 9.89348 2.59884 9.93314C2.69458 9.97723 2.79811 10 2.90278 10C3.00746 10 3.11098 9.97723 3.20672 9.93314C3.3049 9.89348 3.3946 9.83401 3.47067 9.75814L5.07034 8.09151C5.14491 8.01381 5.20407 7.92157 5.24443 7.82006C5.28479 7.71854 5.30556 7.60974 5.30556 7.49985C5.30556 7.38997 5.28479 7.28117 5.24443 7.17965C5.20407 7.07814 5.14491 6.9859 5.07034 6.9082C4.99576 6.8305 4.90723 6.76887 4.80979 6.72682C4.71235 6.68477 4.60792 6.66313 4.50245 6.66313C4.39699 6.66313 4.29256 6.68477 4.19512 6.72682C4.09768 6.76887 4.00915 6.8305 3.93457 6.9082ZM7.7018 1.66663H15.7002C15.9123 1.66663 16.1157 1.57884 16.2657 1.42256C16.4157 1.26628 16.5 1.05433 16.5 0.833317C16.5 0.612308 16.4157 0.40035 16.2657 0.244073C16.1157 0.0877958 15.9123 0 15.7002 0H7.7018C7.48967 0 7.28623 0.0877958 7.13623 0.244073C6.98623 0.40035 6.90196 0.612308 6.90196 0.833317C6.90196 1.05433 6.98623 1.26628 7.13623 1.42256C7.28623 1.57884 7.48967 1.66663 7.7018 1.66663ZM15.7002 4.16659H7.7018C7.48967 4.16659 7.28623 4.25438 7.13623 4.41066C6.98623 4.56694 6.90196 4.77889 6.90196 4.9999C6.90196 5.22091 6.98623 5.43287 7.13623 5.58915C7.28623 5.74542 7.48967 5.83322 7.7018 5.83322H15.7002C15.9123 5.83322 16.1157 5.74542 16.2657 5.58915C16.4157 5.43287 16.5 5.22091 16.5 4.9999C16.5 4.77889 16.4157 4.56694 16.2657 4.41066C16.1157 4.25438 15.9123 4.16659 15.7002 4.16659ZM15.7002 8.33317H7.7018C7.48967 8.33317 7.28623 8.42097 7.13623 8.57724C6.98623 8.73352 6.90196 8.94548 6.90196 9.16649C6.90196 9.3875 6.98623 9.59946 7.13623 9.75573C7.28623 9.91201 7.48967 9.99981 7.7018 9.99981H15.7002C15.9123 9.99981 16.1157 9.91201 16.2657 9.75573C16.4157 9.59946 16.5 9.3875 16.5 9.16649C16.5 8.94548 16.4157 8.73352 16.2657 8.57724C16.1157 8.42097 15.9123 8.33317 15.7002 8.33317Z" fill="#2D3D5C"/>
</svg>
