<svg width="24" height="24" viewBox="0 0 24 24" fill="none" xmlns="http://www.w3.org/2000/svg">
<path d="M10.5882 13.6C10.3854 13.6 10.1909 13.6843 10.0475 13.8343C9.9041 13.9843 9.82353 14.1878 9.82353 14.4V19.2C9.82353 19.4122 9.9041 19.6157 10.0475 19.7657C10.1909 19.9157 10.3854 20 10.5882 20C10.791 20 10.9856 19.9157 11.129 19.7657C11.2724 19.6157 11.3529 19.4122 11.3529 19.2V14.4C11.3529 14.1878 11.2724 13.9843 11.129 13.8343C10.9856 13.6843 10.791 13.6 10.5882 13.6ZM6.76471 16.8C6.56189 16.8 6.36739 16.8843 6.22398 17.0343C6.08057 17.1843 6 17.3878 6 17.6V19.2C6 19.4122 6.08057 19.6157 6.22398 19.7657C6.36739 19.9157 6.56189 20 6.76471 20C6.96752 20 7.16202 19.9157 7.30543 19.7657C7.44884 19.6157 7.52941 19.4122 7.52941 19.2V17.6C7.52941 17.3878 7.44884 17.1843 7.30543 17.0343C7.16202 16.8843 6.96752 16.8 6.76471 16.8ZM18.2353 4C18.0325 4 17.838 4.08429 17.6946 4.23431C17.5512 4.38434 17.4706 4.58783 17.4706 4.8V19.2C17.4706 19.4122 17.5512 19.6157 17.6946 19.7657C17.838 19.9157 18.0325 20 18.2353 20C18.4381 20 18.6326 19.9157 18.776 19.7657C18.9194 19.6157 19 19.4122 19 19.2V4.8C19 4.58783 18.9194 4.38434 18.776 4.23431C18.6326 4.08429 18.4381 4 18.2353 4ZM14.4118 9.6C14.209 9.6 14.0144 9.68429 13.871 9.83431C13.7276 9.98434 13.6471 10.1878 13.6471 10.4V19.2C13.6471 19.4122 13.7276 19.6157 13.871 19.7657C14.0144 19.9157 14.209 20 14.4118 20C14.6146 20 14.8091 19.9157 14.9525 19.7657C15.0959 19.6157 15.1765 19.4122 15.1765 19.2V10.4C15.1765 10.1878 15.0959 9.98434 14.9525 9.83431C14.8091 9.68429 14.6146 9.6 14.4118 9.6Z" fill="#2D3D5C"/>
</svg>
