<svg width="23" height="23" viewBox="0 0 23 23" fill="none" xmlns="http://www.w3.org/2000/svg">
<circle cx="11.5" cy="11.5" r="7.5" fill="white"/>
<circle cx="11.5" cy="11.5" r="9.5" stroke="#5FB951" stroke-opacity="0.5" stroke-width="4"/>
<g clip-path="url(#clip0)">
<path d="M11.6182 9.19455L12.2542 10.6999L13.8825 10.8397C13.9954 10.8495 14.0413 10.9904 13.9556 11.0646L12.7206 12.1346L13.0907 13.7264C13.1163 13.837 12.9965 13.924 12.8995 13.8653L11.5001 13.0214L10.1008 13.8653C10.0036 13.9238 9.88395 13.8368 9.90962 13.7264L10.2797 12.1346L9.04441 11.0643C8.95869 10.9901 9.00437 10.8492 9.11756 10.8395L10.7458 10.6996L11.3818 9.19455C11.426 9.08983 11.5741 9.08983 11.6182 9.19455Z" fill="black"/>
</g>
<defs>
<clipPath id="clip0">
<rect width="5" height="5" fill="white" transform="translate(9 9)"/>
</clipPath>
</defs>
</svg>
