<svg width="17" height="22" viewBox="0 0 17 22" fill="none" xmlns="http://www.w3.org/2000/svg">
<path d="M8.09915 0C3.63349 0 0 3.63349 0 8.0996C0 9.26453 0.238435 10.3768 0.708326 11.4057C2.73334 15.8369 6.61585 20.5154 7.75782 21.8435C7.84338 21.9428 7.96811 22 8.09937 22C8.23064 22 8.35537 21.9428 8.44093 21.8435C9.58245 20.5156 13.465 15.8374 15.4906 11.4057C15.9608 10.3768 16.199 9.26453 16.199 8.0996C16.1985 3.63349 12.565 0 8.09915 0ZM8.09915 12.3066C5.77941 12.3066 3.89197 10.4191 3.89197 8.09937C3.89197 5.77941 5.77941 3.89197 8.09915 3.89197C10.4189 3.89197 12.3063 5.77941 12.3063 8.09937C12.3066 10.4191 10.4191 12.3066 8.09915 12.3066Z" fill="#5FB951"/>
</svg>
