<svg width="23" height="23" viewBox="0 0 23 23" fill="none" xmlns="http://www.w3.org/2000/svg">
<circle cx="11.5" cy="11.5" r="7.5" fill="white"/>
<circle cx="11.5" cy="11.5" r="9.5" stroke="#58B8EE" stroke-opacity="0.5" stroke-width="4"/>
<g clip-path="url(#clip0)">
<path d="M12.1954 11.7713C11.9992 11.6629 11.7906 11.5803 11.584 11.4945C11.4642 11.445 11.3496 11.3871 11.2484 11.3066C11.0491 11.1476 11.0873 10.8894 11.3207 10.7872C11.3868 10.7582 11.456 10.749 11.5262 10.7448C11.7968 10.7304 12.0539 10.7799 12.2986 10.8977C12.4205 10.9565 12.4608 10.9379 12.5021 10.8109C12.5454 10.6767 12.5816 10.5404 12.6219 10.4051C12.6487 10.3142 12.6157 10.2543 12.53 10.2161C12.373 10.1469 12.2119 10.0973 12.0425 10.0705C11.8215 10.0364 11.8215 10.0354 11.8205 9.81336C11.8195 9.50046 11.8195 9.50046 11.5056 9.50046C11.4601 9.50046 11.4147 9.49943 11.3692 9.50046C11.2226 9.50459 11.1978 9.53041 11.1937 9.67808C11.1916 9.74417 11.1937 9.81026 11.1927 9.87738C11.1916 10.0736 11.1906 10.0705 11.0026 10.1386C10.5483 10.3039 10.2674 10.6137 10.2374 11.1094C10.2106 11.5482 10.4398 11.8446 10.8002 12.0604C11.0223 12.1937 11.268 12.2721 11.5035 12.3764C11.5954 12.4167 11.6832 12.4632 11.7596 12.5272C11.9857 12.7141 11.9444 13.025 11.6759 13.1427C11.5324 13.2057 11.3806 13.2212 11.2247 13.2015C10.9841 13.1716 10.7538 13.1086 10.5369 12.996C10.4099 12.9299 10.3727 12.9475 10.3293 13.0848C10.2922 13.2036 10.2591 13.3234 10.2261 13.4432C10.1817 13.6043 10.1982 13.6425 10.3521 13.7179C10.5483 13.8129 10.7579 13.8614 10.9717 13.8955C11.139 13.9223 11.1441 13.9296 11.1462 14.1031C11.1472 14.1815 11.1472 14.2611 11.1482 14.3395C11.1493 14.4387 11.1968 14.4965 11.299 14.4986C11.4147 14.5006 11.5314 14.5006 11.647 14.4975C11.742 14.4955 11.7906 14.4438 11.7906 14.3478C11.7906 14.2404 11.7957 14.132 11.7916 14.0246C11.7864 13.9151 11.8339 13.8593 11.9393 13.8304C12.1819 13.7643 12.3885 13.6342 12.5475 13.4401C12.9895 12.9031 12.8212 12.1172 12.1954 11.7713Z" fill="black"/>
</g>
<defs>
<clipPath id="clip0">
<rect width="5" height="5" fill="white" transform="translate(9 9.5)"/>
</clipPath>
</defs>
</svg>
