<svg width="24" height="24" viewBox="0 0 24 24" fill="none" xmlns="http://www.w3.org/2000/svg">
<path d="M20 2H4V22H20V2Z" stroke="#4F5E74" stroke-width="2" stroke-linecap="round" stroke-linejoin="round"/>
<path d="M6 8V6C6 5.44772 6.44772 5 7 5H17C17.5523 5 18 5.44772 18 6V8C18 8.55228 17.5523 9 17 9H7C6.44772 9 6 8.55228 6 8Z" fill="#4F5E74"/>
<path d="M16 15V18" stroke="#4F5E74" stroke-width="2" stroke-linecap="round" stroke-linejoin="round"/>
<path d="M12 12V12.0133" stroke="#4F5E74" stroke-width="2" stroke-linecap="round" stroke-linejoin="round"/>
<path d="M16 12V12.0133" stroke="#4F5E74" stroke-width="2" stroke-linecap="round" stroke-linejoin="round"/>
<path d="M12 15V15.0133" stroke="#4F5E74" stroke-width="2" stroke-linecap="round" stroke-linejoin="round"/>
<path d="M12 18V18.0133" stroke="#4F5E74" stroke-width="2" stroke-linecap="round" stroke-linejoin="round"/>
<path d="M8 15V15.0133" stroke="#4F5E74" stroke-width="2" stroke-linecap="round" stroke-linejoin="round"/>
<path d="M8 18V18.0133" stroke="#4F5E74" stroke-width="2" stroke-linecap="round" stroke-linejoin="round"/>
<path d="M8 12V12.0133" stroke="#4F5E74" stroke-width="2" stroke-linecap="round" stroke-linejoin="round"/>
</svg>
