<svg width="24" height="24" viewBox="0 0 24 24" fill="none" xmlns="http://www.w3.org/2000/svg">
<path d="M4 2C3.44772 2 3 2.44772 3 3V21C3 21.5523 3.44772 22 4 22H10C10.5523 22 11 21.5523 11 21C11 20.4477 10.5523 20 10 20H5V4H19V11C19 11.5523 19.4477 12 20 12C20.5523 12 21 11.5523 21 11V3C21 2.44772 20.5523 2 20 2H4Z" fill="#4F5E74"/>
<path d="M8 16H9" stroke="#4F5E74" stroke-width="2" stroke-linecap="round" stroke-linejoin="round"/>
<path d="M8 12H10" stroke="#4F5E74" stroke-width="2" stroke-linecap="round" stroke-linejoin="round"/>
<path d="M8 8H16" stroke="#4F5E74" stroke-width="2" stroke-linecap="round" stroke-linejoin="round"/>
<path d="M20 17.5C20 18.4665 19.6082 19.3415 18.9749 19.9749C18.3415 20.6082 17.4665 21 16.5 21C14.567 21 13 19.433 13 17.5C13 15.567 14.567 14 16.5 14C18.433 14 20 15.567 20 17.5Z" stroke="#4F5E74" stroke-width="2" stroke-linecap="round" stroke-linejoin="round"/>
<path d="M21 22L19 20" stroke="#4F5E74" stroke-width="2" stroke-linecap="round" stroke-linejoin="round"/>
</svg>
