<svg width="16" height="16" viewBox="0 0 16 16" fill="none" xmlns="http://www.w3.org/2000/svg">
<path fill-rule="evenodd" clip-rule="evenodd" d="M4.8 3.2H3.2V2.4H1.6V4.8H14.4V2.4H12.8V3.2H11.2V2.4H4.8V3.2ZM14.4 6.4H1.6V14.4H14.4V6.4ZM11.2 0.8H4.8V0H3.2V0.8H1.6C0.716344 0.8 0 1.51634 0 2.4V14.4C0 15.2837 0.716344 16 1.6 16H14.4C15.2837 16 16 15.2837 16 14.4V2.4C16 1.51634 15.2837 0.8 14.4 0.8H12.8V0H11.2V0.8ZM4 9.6V8H5.6V9.6H4ZM7.2 9.6H8.8V8H7.2V9.6ZM10.4 9.6V8H12V9.6H10.4ZM4 11.2V12.8H5.6V11.2H4ZM8.8 12.8H7.2V11.2H8.8V12.8Z" fill="#71B92F"/>
</svg>
