<svg width="25" height="24" viewBox="0 0 25 24" fill="none" xmlns="http://www.w3.org/2000/svg">
<path fill-rule="evenodd" clip-rule="evenodd" d="M1.68689 12C1.68689 18.0751 6.6615 23 12.798 23C18.9345 23 23.9091 18.0751 23.9091 12C23.9091 5.92487 18.9345 1 12.798 1C6.6615 1 1.68689 5.92487 1.68689 12ZM21.8889 12C21.8889 16.9706 17.8188 21 12.798 21C7.77723 21 3.70709 16.9706 3.70709 12C3.70709 7.02944 7.77723 3 12.798 3C17.8188 3 21.8889 7.02944 21.8889 12ZM13.8118 13.9983H14.8212V15.9983H10.7808V13.9983H11.7909V11.9983H10.7808V9.99835H13.8118V13.9983ZM13.8088 7.99835C13.8088 8.55063 13.3564 8.99835 12.7983 8.99835C12.2403 8.99835 11.7879 8.55063 11.7879 7.99835C11.7879 7.44606 12.2403 6.99835 12.7983 6.99835C13.3564 6.99835 13.8088 7.44606 13.8088 7.99835Z" fill="#71B92F"/>
</svg>
