<svg width="19" height="19" viewBox="0 0 19 19" fill="none" xmlns="http://www.w3.org/2000/svg">
<path fill-rule="evenodd" clip-rule="evenodd" d="M9.5 19C4.25329 19 0 14.7467 0 9.5C0 4.25329 4.25329 0 9.5 0C14.7467 0 19 4.25329 19 9.5C19 14.7467 14.7467 19 9.5 19ZM15.8906 13.9258C16.7621 12.6698 17.2728 11.1446 17.2728 9.50008C17.2728 5.20732 13.7928 1.72735 9.50008 1.72735C5.20732 1.72735 1.72736 5.20732 1.72736 9.50008C1.72736 11.1447 2.23813 12.67 3.1097 13.926C4.08164 12.6421 6.36569 12.091 9.50024 12.091C12.6346 12.091 14.9186 12.6421 15.8906 13.9258ZM14.6515 15.3207C14.3986 14.4119 12.5827 13.8183 9.50024 13.8183C6.41751 13.8183 4.60159 14.412 4.3489 15.3209C5.72033 16.5355 7.5241 17.2728 9.50008 17.2728C11.4762 17.2728 13.2801 16.5354 14.6515 15.3207ZM9.49983 4.31816C7.40906 4.31816 6.04529 5.8345 6.04529 7.77271C6.04529 10.7327 7.56603 12.0909 9.49983 12.0909C11.4155 12.0909 12.9544 10.7778 12.9544 7.94543C12.9544 5.97771 11.5848 4.31816 9.49983 4.31816ZM7.77264 7.77279C7.77264 9.7326 8.47928 10.3637 9.49992 10.3637C10.517 10.3637 11.2272 9.75776 11.2272 7.94552C11.2272 6.86633 10.5498 6.04552 9.49992 6.04552C8.40633 6.04552 7.77264 6.75009 7.77264 7.77279Z" fill="#4F5E74"/>
</svg>
